<svg width="125" height="53" viewBox="0 0 125 53" fill="none" xmlns="http://www.w3.org/2000/svg">
<g id="Layer_1" clip-path="url(#clip0_4977_1627)">
<path id="Vector" d="M13.2664 18.2049H15.1101V21.7698H15.1347C15.318 21.4586 15.5122 21.1712 15.7091 20.8839L17.5637 18.2049H19.8586L17.137 21.6368L19.9927 26.2659H17.8317L15.8048 22.7861L15.1101 23.6348V26.2659H13.2664V18.2049Z" fill="#546512"/>
<path id="Vector_2" d="M25.6548 22.8579H22.6268V24.7707H26.0077V26.2659H20.7722V18.2049H25.8381V19.7H22.6295V21.3734H25.6576V22.8553L25.6548 22.8579Z" fill="#546512"/>
<path id="Vector_3" d="M27.2769 26.2659V18.2049H29.4488L31.1584 21.1579C31.6453 22.0066 32.1212 23.0122 32.5014 23.9194H32.526C32.4166 22.8553 32.3783 21.7672 32.3783 20.546V18.2022H34.0879V26.2632H32.1349L30.3788 23.1532C29.8919 22.2806 29.3421 21.251 28.9509 20.3066H28.9017C28.9619 21.3841 28.9865 22.5201 28.9865 23.8343V26.2606H27.2769V26.2659Z" fill="#546512"/>
<path id="Vector_4" d="M37.6001 26.2659V22.9643L35.0015 18.2049H37.1378L37.9666 20.1417C38.2238 20.7269 38.407 21.1579 38.6012 21.6847H38.6259C38.8091 21.1819 39.0033 20.7163 39.2495 20.1417L40.0783 18.2049H42.1654L39.4547 22.9058V26.2659H37.6001Z" fill="#546512"/>
<path id="Vector_5" d="M43.7656 24.1961L43.1912 26.2659H41.2627L43.7765 18.2049H46.2055L48.7685 26.2659H46.7663L46.1317 24.1961H43.7629H43.7656ZM45.8527 22.834L45.3412 21.1233C45.2071 20.6445 45.0594 20.0352 44.9391 19.5697H44.9035C44.7941 20.0485 44.6601 20.6578 44.537 21.1233L44.0364 22.834H45.8554H45.8527Z" fill="#546512"/>
<path id="Vector_6" d="M1.95304 40.6639L0 32.6029H1.9886L2.61226 35.9151C2.79553 36.8835 2.96512 37.9237 3.09915 38.7484H3.12377C3.2578 37.8625 3.45201 36.8941 3.6599 35.8912L4.35468 32.6029H6.33233L6.99155 36.0003C7.17482 36.9447 7.30885 37.8067 7.43194 38.7032H7.45656C7.57965 37.8067 7.76292 36.8622 7.93251 35.8938L8.60267 32.6056H10.4955L8.3729 40.6666H6.35969L5.66491 37.1974C5.50626 36.3834 5.37223 35.6305 5.27375 34.71H5.24914C5.10143 35.6198 4.96739 36.3834 4.77318 37.1974L3.99087 40.6666H1.95304V40.6639Z" fill="#546512"/>
<path id="Vector_7" d="M13.3266 32.6029V40.6639H11.4721V32.6029H13.3266Z" fill="#546512"/>
<path id="Vector_8" d="M14.9487 32.6029H16.8033V39.1315H20.0747V40.6613H14.9487V32.6003V32.6029Z" fill="#546512"/>
<path id="Vector_9" d="M21.1716 32.7227C21.8554 32.6029 22.7444 32.5444 23.6744 32.5444C25.2473 32.5444 26.273 32.7945 27.0553 33.3824C27.9088 34.005 28.4476 35.0079 28.4476 36.4445C28.4476 37.9876 27.8732 39.0517 27.0936 39.7088C26.2265 40.4138 24.8971 40.749 23.286 40.749C22.3232 40.749 21.6257 40.6905 21.1743 40.6293V32.7253L21.1716 32.7227ZM23.0262 39.2885C23.1848 39.3231 23.4529 39.3231 23.6717 39.3231C25.3676 39.3364 26.4782 38.4265 26.4782 36.5004C26.4782 34.7658 25.477 33.9411 23.8659 33.9411C23.4638 33.9411 23.1821 33.9784 23.0234 34.0129V39.2858L23.0262 39.2885Z" fill="#546512"/>
<path id="Vector_10" d="M29.6785 32.6029H31.5331V39.1315H34.8046V40.6613H29.6785V32.6003V32.6029Z" fill="#546512"/>
<path id="Vector_11" d="M37.7697 32.6029V40.6639H35.9151V32.6029H37.7697Z" fill="#546512"/>
<path id="Vector_12" d="M39.3918 32.6029H44.4084V34.0981H41.2491V35.9391H44.2033V37.4209H41.2491V40.6613H39.3945V32.6003L39.3918 32.6029Z" fill="#546512"/>
<path id="Vector_13" d="M50.7052 37.256H47.6771V39.1688H51.058V40.6639H45.8226V32.6029H50.8884V34.0981H47.6799V35.7715H50.7079V37.2533L50.7052 37.256Z" fill="#546512"/>
<path id="Vector_14" d="M11.6225 51.2283C12.0848 51.4997 12.7495 51.7072 13.4607 51.7072C14.5165 51.7072 15.132 51.2071 15.132 50.4595C15.132 49.7864 14.7052 49.3847 13.6275 49.0149C12.3227 48.5812 11.5186 47.9507 11.5186 46.9291C11.5186 45.7878 12.5498 44.9418 14.1035 44.9418C14.9104 44.9418 15.5149 45.1148 15.8568 45.301L15.5723 46.0725C15.3234 45.9315 14.79 45.724 14.0679 45.724C12.9765 45.724 12.5635 46.3199 12.5635 46.8201C12.5635 47.5038 13.0504 47.8417 14.1527 48.2327C15.504 48.7222 16.1796 49.3075 16.1796 50.3823C16.1796 51.513 15.2797 52.5 13.395 52.5C12.6236 52.5 11.7839 52.2819 11.3572 52.0211L11.6307 51.2283H11.6225Z" fill="#546512"/>
<path id="Vector_15" d="M21.7214 48.9484H18.6277V51.5875H22.0879V52.3803H17.5828V45.0616H21.9101V45.8543H18.6277V48.1662H21.7214V48.9484Z" fill="#546512"/>
<path id="Vector_16" d="M23.4283 45.168C23.9507 45.0695 24.7084 45.0057 25.4087 45.0057C26.511 45.0057 27.2331 45.1999 27.731 45.6149C28.1221 45.9288 28.3601 46.429 28.3601 47.0036C28.3601 47.9587 27.6845 48.5999 26.8557 48.8606V48.8925C27.4602 49.0894 27.8267 49.6082 28.0291 50.369C28.289 51.3906 28.4805 52.0956 28.6336 52.3776H27.5669C27.4356 52.1701 27.2578 51.5423 27.0444 50.6297C26.8064 49.6188 26.3688 49.241 25.4333 49.2064H24.4622V52.3776H23.431V45.168H23.4283ZM24.4595 48.4908H25.5153C26.6177 48.4908 27.3179 47.9374 27.3179 47.1021C27.3179 46.1576 26.5712 45.7453 25.4798 45.7453C24.9819 45.7453 24.6373 45.7878 24.4595 45.8331V48.4934V48.4908Z" fill="#546512"/>
<path id="Vector_17" d="M31.7492 52.3803L29.1287 45.0616H30.2557L31.5003 48.6664C31.8313 49.6534 32.1294 50.5553 32.3537 51.4039H32.3783C32.6026 50.5579 32.9227 49.6348 33.2919 48.677L34.6432 45.0616H35.7455L32.8898 52.3803H31.7519H31.7492Z" fill="#546512"/>
<path id="Vector_18" d="M37.6411 45.0616V52.3803H36.599V45.0616H37.6411Z" fill="#546512"/>
<path id="Vector_19" d="M45.0129 52.1515C44.6464 52.3244 43.875 52.5 42.904 52.5C40.6528 52.5 38.9678 51.1964 38.9678 48.7861C38.9678 46.3758 40.6637 44.9418 43.1392 44.9418C44.1239 44.9418 44.764 45.136 45.0348 45.2664L44.7749 46.0379C44.3947 45.865 43.8394 45.7346 43.1748 45.7346C41.301 45.7346 40.0565 46.8307 40.0565 48.7542C40.0565 50.5579 41.1834 51.6966 43.1146 51.6966C43.7546 51.6966 44.3947 51.5768 44.8105 51.3933L45.0129 52.1542V52.1515Z" fill="#546512"/>
<path id="Vector_20" d="M50.4426 48.9484H47.3489V51.5875H50.8091V52.3803H46.304V45.0616H50.6313V45.8543H47.3489V48.1662H50.4426V48.9484Z" fill="#546512"/>
<path id="Vector_21" d="M90.3978 35.4895L89.8043 34.9574L89.2107 35.5773L88.1849 36.7292C86.6805 38.8575 84.9244 37.2161 84.9244 37.2161C86.9759 40.2755 90.3951 35.4868 90.3951 35.4868L90.3978 35.4895Z" fill="#546512"/>
<path id="Vector_22" d="M92.5861 33.0951C93.1904 33.0951 93.6803 32.6187 93.6803 32.031C93.6803 31.4432 93.1904 30.9668 92.5861 30.9668C91.9818 30.9668 91.492 31.4432 91.492 32.031C91.492 32.6187 91.9818 33.0951 92.5861 33.0951Z" fill="#546512"/>
<path id="Vector_23" d="M66.7371 44.8008V52.2499H69.1989V45.865C69.1989 45.865 68.515 41.4753 80.4138 42.8055V52.2499H83.0124V40.8102C83.0124 40.8102 68.1047 39.347 66.7371 44.8008Z" fill="#546512"/>
<path id="Vector_24" d="M120.897 31.0998C121.034 26.3111 115.837 11.679 115.837 11.679C114.195 8.35347 110.229 7.68837 110.229 7.68837C108.588 7.82139 105.989 5.02798 105.989 5.02798L102.57 1.43645C100.655 -0.292802 99.0142 0.904374 99.0142 0.904374L90.3978 4.22986C84.9271 6.22516 86.2948 9.41762 86.2948 9.41762L91.0817 20.0592C87.936 16.9997 84.6536 9.01857 84.6536 9.01857C83.4227 4.76194 90.1243 2.89967 90.1243 2.89967H76.8579C72.6181 0.638335 69.8827 2.63363 69.8827 2.63363C57.3001 10.0827 55.2486 18.3299 55.2486 18.3299C54.5647 24.1828 55.2486 36.8197 55.2486 36.8197C56.0692 38.6819 56.3427 37.0857 56.3427 37.0857C55.6589 31.8979 56.8898 30.9668 56.8898 30.9668V52.2499H63.1811V38.5489L62.4973 40.4112L62.3605 33.4942C62.3605 33.4942 64.0017 27.9073 69.8827 24.7149L70.8401 24.5153L71.9342 24.4488L73.7806 24.5819L77.952 24.7149C77.952 24.7149 74.6696 26.8432 82.8756 36.4206C82.8756 36.4206 83.6962 36.9527 83.9698 36.2876C83.9698 36.2876 80.4138 31.3658 80.1403 26.3111C80.1403 26.3111 83.1492 23.6507 86.4316 23.3847C86.4316 23.3847 89.4405 24.8479 89.9875 26.5771C89.9875 26.5771 94.3641 27.1092 94.5009 28.9715L96.9627 34.9574C96.9627 34.9574 97.6465 36.8197 97.5097 38.4159C97.5097 38.4159 97.92 47.3282 94.6376 49.1905C94.6376 49.1905 92.9964 51.8509 89.0302 49.1905C89.0302 49.1905 88.6199 48.3924 89.714 48.7914C89.714 48.7914 93.2699 50.7867 94.3641 46.131C94.3641 46.131 95.8685 41.6084 92.3126 38.8149C92.3126 38.8149 88.3463 37.4847 85.4742 40.6772V52.2499H87.7992V50.3876C87.8457 50.4302 87.8895 50.4675 87.936 50.5074V50.2546C88.6964 50.9942 89.6538 51.6034 90.1681 51.9094C90.4088 51.9839 90.5346 51.9839 90.5346 51.9839H103.117V49.3235C103.117 49.3235 103.164 49.3634 103.254 49.4299V49.1905C110.366 52.915 115.426 48.3924 115.426 48.3924C121.581 44.1357 121.581 33.7602 121.581 33.7602C124.726 33.3611 125 32.563 125 32.563C121.718 32.297 120.897 31.0998 120.897 31.0998ZM87.6625 47.5942V42.4065C87.6625 42.4065 88.7566 39.347 91.3552 41.0763C91.3552 41.0763 93.2699 42.9385 92.4493 46.9291C92.4493 46.9291 92.039 48.7914 89.5772 47.1952C89.5772 47.1952 88.8934 46.9291 87.6625 47.5942ZM110.776 14.7384C111.531 14.7384 112.144 15.3343 112.144 16.0686C112.144 16.8029 111.531 17.3988 110.776 17.3988C110.021 17.3988 109.409 16.8029 109.409 16.0686C109.409 15.3343 110.021 14.7384 110.776 14.7384ZM98.6039 28.0404V26.8432L103.801 21.2564L104.758 21.1233V21.9215L99.8348 28.0404H98.6039ZM111.05 44.1357C111.05 44.1357 109.682 47.1952 105.579 43.4706L103.117 45.865L102.98 30.7007H109.135C109.135 30.7007 114.059 39.8791 111.05 44.1357ZM110.092 28.5724L112.554 26.1781C119.256 32.9621 124.316 32.696 124.316 32.696C116.247 34.8244 110.092 28.5724 110.092 28.5724Z" fill="#546512"/>
</g>
<defs>
<clipPath id="clip0_4977_1627">
<rect width="125" height="52" fill="white" transform="translate(0 0.5)"/>
</clipPath>
</defs>
</svg>
